# xmcd
#
# Track frame offsets:
#	150
#	11570
#	22565
#	38567
#	50825
#	62312
#	74255
#	86642
#	97227
#	107780
#	120727
#	130422
#	139902
#	150805
#	162145
#	172950
#	189067
#	200434
#	214197
#	226767
#	239542
#	253965
#	267487
#	281222
#
# Disc length: 3897 seconds
#
# Revision: 0
# Processed by: cddbd v1.4PL0 Copyright (c) Steve Scherf et al.
# Submitted via: dBpowerAMP V4.0
#
DISCID=4c0f3718
DTITLE=24 Country Love Songs - I Love You Because
DYEAR=1997
DGENRE=
TTITLE0=Baby We're Really In Love
TTITLE1=My Heart Skips A Beat
TTITLE2=I Love You Because
TTITLE3=Stand By Yours Man
TTITLE4=I Love You More Today
TTITLE5=You're The Nearest Thing To Heaven
TTITLE6=If My Heart Had Windows
TTITLE7=I Don't Wanta
TTITLE8=Slowly Byt Surely
TTITLE9=Love Me Tender
TTITLE10=You mean The World To Me
TTITLE11=Some Birds
TTITLE12=A Fallen Star
TTITLE13=Slowly
TTITLE14=Then I'll Stop Loving You
TTITLE15=Old Flames Can't Hold A Candle To You
TTITLE16=Heaven Is My Woman's Love
TTITLE17=You Lay So Easy On My Mind
TTITLE18=I Go On Loving You
TTITLE19=Dallas
TTITLE20=Since I Met You Baby
TTITLE21=I'll Still Love You
TTITLE22=On My Kness
TTITLE23=Please Don't Tell Me How The Story Ends
EXTD=24 Contry Love Songs
EXTT0=
EXTT1=
EXTT2=
EXTT3=
EXTT4=
EXTT5=
EXTT6=
EXTT7=
EXTT8=
EXTT9=
EXTT10=
EXTT11=
EXTT12=
EXTT13=
EXTT14=
EXTT15=
EXTT16=
EXTT17=
EXTT18=
EXTT19=
EXTT20=
EXTT21=
EXTT22=
EXTT23=
PLAYORDER=
